HIERARCHY
ROOT Hips
{
	OFFSET 0.00000 0.00000 0.00000
	CHANNELS 6 Xposition Yposition Zposition Zrotation Yrotation Xrotation 
	JOINT LHipJoint
	{
		OFFSET 0 0 0
		CHANNELS 3 Zrotation Yrotation Xrotation
		JOINT LeftUpLeg
		{
			OFFSET 1.41496 -1.84582 0.78394
			CHANNELS 3 Zrotation Yrotation Xrotation
			JOINT LeftLeg
			{
				OFFSET 2.58040 -7.08960 0.00000
				CHANNELS 3 Zrotation Yrotation Xrotation
				JOINT LeftFoot
				{
					OFFSET 2.64719 -7.27309 0.00000
					CHANNELS 3 Zrotation Yrotation Xrotation
					JOINT LeftToeBase
					{
						OFFSET 0.20718 -0.56921 2.20259
						CHANNELS 3 Zrotation Yrotation Xrotation
						End Site
						{
							OFFSET 0.00000 -0.00000 1.14243
						}
					}
				}
			}
		}
	}
	JOINT RHipJoint
	{
		OFFSET 0 0 0
		CHANNELS 3 Zrotation Yrotation Xrotation
		JOINT RightUpLeg
		{
			OFFSET -1.40551 -1.84582 0.78394
			CHANNELS 3 Zrotation Yrotation Xrotation
			JOINT RightLeg
			{
				OFFSET -2.56572 -7.04926 0.00000
				CHANNELS 3 Zrotation Yrotation Xrotation
				JOINT RightFoot
				{
					OFFSET -2.57974 -7.08778 0.00000
					CHANNELS 3 Zrotation Yrotation Xrotation
					JOINT RightToeBase
					{
						OFFSET -0.26704 -0.73369 2.20815
						CHANNELS 3 Zrotation Yrotation Xrotation
						End Site
						{
							OFFSET -0.00000 -0.00000 1.16246
						}
					}
				}
			}
		}
	}
	JOINT LowerBack
	{
		OFFSET 0 0 0
		CHANNELS 3 Zrotation Yrotation Xrotation
		JOINT Spine
		{
			OFFSET -0.04690 2.05196 -0.07017
			CHANNELS 3 Zrotation Yrotation Xrotation
			JOINT Spine1
			{
				OFFSET 0.04085 2.05260 0.00800
				CHANNELS 3 Zrotation Yrotation Xrotation
				JOINT Neck
				{
					OFFSET 0 0 0
					CHANNELS 3 Zrotation Yrotation Xrotation
					JOINT Neck1
					{
						OFFSET -0.03582 1.80995 0.19301
						CHANNELS 3 Zrotation Yrotation Xrotation
						JOINT Head
						{
							OFFSET 0.00952 1.80195 -0.36389
							CHANNELS 3 Zrotation Yrotation Xrotation
							End Site
							{
								OFFSET 0.00392 1.85062 -0.14494
							}
						}
					}
				}
				JOINT LeftShoulder
				{
					OFFSET 0 0 0
					CHANNELS 3 Zrotation Yrotation Xrotation
					JOINT LeftArm
					{
						OFFSET 3.55224 1.39726 -0.13667
						CHANNELS 3 Zrotation Yrotation Xrotation
						JOINT LeftForeArm
						{
							OFFSET 5.14507 -0.00000 -0.00000
							CHANNELS 3 Zrotation Yrotation Xrotation
							JOINT LeftHand
							{
								OFFSET 3.50646 -0.00000 0.00000
								CHANNELS 3 Zrotation Yrotation Xrotation
								JOINT LeftFingerBase
								{
									OFFSET 0 0 0
									CHANNELS 3 Zrotation Yrotation Xrotation
									JOINT LeftHandIndex1
									{
										OFFSET 0.62997 -0.00000 0.00000
										CHANNELS 3 Zrotation Yrotation Xrotation
										End Site
										{
											OFFSET 0.50790 -0.00000 0.00000
										}
									}
								}
								JOINT LThumb
								{
									OFFSET 0 0 0
									CHANNELS 3 Zrotation Yrotation Xrotation
									End Site
									{
										OFFSET 0.51565 -0.00000 0.51565
									}
								}
							}
						}
					}
				}
				JOINT RightShoulder
				{
					OFFSET 0 0 0
					CHANNELS 3 Zrotation Yrotation Xrotation
					JOINT RightArm
					{
						OFFSET -3.06467 1.61290 -0.28813
						CHANNELS 3 Zrotation Yrotation Xrotation
						JOINT RightForeArm
						{
							OFFSET -5.23200 -0.00000 -0.00000
							CHANNELS 3 Zrotation Yrotation Xrotation
							JOINT RightHand
							{
								OFFSET -3.65641 -0.00000 0.00000
								CHANNELS 3 Zrotation Yrotation Xrotation
								JOINT RightFingerBase
								{
									OFFSET 0 0 0
									CHANNELS 3 Zrotation Yrotation Xrotation
									JOINT RightHandIndex1
									{
										OFFSET -0.65681 -0.00000 0.00000
										CHANNELS 3 Zrotation Yrotation Xrotation
										End Site
										{
											OFFSET -0.52953 -0.00000 0.00000
										}
									}
								}
								JOINT RThumb
								{
									OFFSET 0 0 0
									CHANNELS 3 Zrotation Yrotation Xrotation
									End Site
									{
										OFFSET -0.53762 -0.00000 0.53762
									}
								}
							}
						}
					}
				}
			}
		}
	}
}
MOTION
Frames: 15
Frame Time: .0083333
2.6802 15.27 43.2292 0 0 0 0 0 0 -21 0 0 0 0 0 0 0 0 0 0 0 0 0 0 21 0 0 0 0 0 0 0 0 0 0 0 0 0 0 0 0 0 0 0 0 0 0 -16 0 0 21 0 0 11 0 0 0 -8 0 0 0 0 0 0 0 0 0 0 0 0 0 0 0 0 0 0 0 0 8 0 0 0 0 0 0 0 0 0 0 0 0 0 0 0 0 0
2.6802 15.2700 43.2292 -172.5170 -8.7959 -150.7020 0.0000 0.0000 0.0000 5.3761 -16.5389 -78.2065 12.5290 18.6054 67.6560 0.4452 -11.5984 -13.4496 1.1431 6.7893 19.0928 0.0000 0.0000 0.0000 26.9864 -2.3132 -17.3131 -8.2674 -16.3124 53.5201 0.1163 -8.4617 3.2334 -2.8122 10.3846 -30.2315 6.8220 1.2541 28.0051 0.9286 2.9747 3.5027 -3.8909 0.7501 -11.2534 -4.2402 -4.0971 -13.0150 5.2221 -5.4836 -5.0852 2.1295 -2.8727 0.8757 -0.0000 -0.0000 0.0000 -81.5736 4.4793 37.9126 34.0051 -44.0885 -14.1166 -0.0000 0.0000 -1.1249 22.8542 -4.1561 -1.7496 -7.1250 0.0000 -0.0000 -2.8543 25.4702 1.3510 -0.0000 -0.0000 0.0000 85.0914 -2.0148 38.5510 -49.0436 52.6024 -25.4123 0.0000 -0.0000 -1.7265 -17.9997 -7.1689 2.3219 7.1250 -0.0000 -0.0000 7.4830 -37.4192 1.4056
2.6315 15.2911 42.9247 -173.2300 -8.8390 -150.4680 0.0000 0.0000 0.0000 4.0303 -16.6268 -77.2282 12.6359 18.6467 67.9908 0.5339 -12.2520 -14.5674 1.0605 6.5475 18.3816 0.0000 0.0000 0.0000 26.0065 -2.4198 -20.7151 -9.5199 -17.1309 57.8713 0.1627 -8.6377 2.0412 -2.4882 9.8164 -28.3841 6.3986 1.1570 28.2349 0.8365 2.7144 3.5806 -3.6665 0.6422 -11.3287 -4.2017 -4.0747 -12.8354 5.1216 -5.4650 -5.2431 2.0949 -2.8708 0.7874 0.0000 0.0000 0.0000 -81.3509 4.1062 38.5728 34.5874 -44.5152 -14.5233 -0.0000 0.0000 -0.8382 22.6870 -3.1252 -1.3056 -7.1250 0.0000 -0.0000 -2.9880 26.5907 1.3362 0.0000 0.0000 0.0000 84.9825 -2.2714 38.0546 -49.5572 52.8154 -25.8210 0.0000 -0.0000 -1.3531 -18.5082 -6.2045 2.0720 7.1250 -0.0000 -0.0000 6.9289 -36.4444 1.4664
2.5867 15.3104 42.6139 -174.1230 -9.0702 -150.4740 0.0000 0.0000 0.0000 2.5227 -16.8995 -75.9023 12.7272 18.6814 68.2760 0.6072 -13.2003 -15.5918 1.3157 7.2652 20.5034 0.0000 0.0000 0.0000 24.9811 -2.9258 -23.7108 -10.7246 -17.7976 61.8838 0.2002 -8.3603 -0.1599 -2.7334 10.2504 -29.7913 6.0017 0.9729 28.6087 0.7485 2.3204 3.8099 -3.4018 0.4666 -11.3099 -4.1544 -4.0610 -12.9791 4.9830 -5.4578 -5.2556 2.0389 -2.8727 0.7999 -0.0000 -0.0000 0.0000 -81.1437 3.5355 39.0689 34.9039 -44.7434 -14.7457 -0.0000 0.0000 -0.6874 22.8675 -3.5449 -1.4937 -7.1250 0.0000 -0.0000 -2.8470 26.1318 1.3036 -0.0000 -0.0000 0.0000 84.8777 -2.4715 37.4914 -50.4113 53.1601 -26.5030 0.0000 -0.0000 -1.1230 -18.8160 -6.0684 2.0630 7.1250 -0.0000 -0.0000 6.6550 -36.3190 1.4283
2.5403 15.3499 42.2968 -174.8710 -9.1215 -150.3130 0.0000 0.0000 0.0000 1.1327 -16.9683 -74.5974 12.8040 18.7103 68.5158 0.7240 -13.7411 -16.7917 0.9831 6.3113 17.6904 0.0000 0.0000 0.0000 24.0108 -3.2866 -26.9360 -11.9264 -18.3594 65.7553 0.2085 -8.0771 -3.4097 -2.2486 9.3658 -26.9464 5.5678 0.8531 28.8970 0.6744 2.0262 3.8818 -3.1346 0.3412 -11.4188 -4.1765 -4.0143 -13.0174 4.9361 -5.3933 -5.2466 2.0303 -2.8411 0.8052 0.0000 -0.0000 0.0000 -80.9446 3.1763 39.4517 35.3011 -45.0259 -15.0260 -0.0000 0.0000 -0.2336 22.8419 -3.6398 -1.5318 -7.1250 0.0000 -0.0000 -2.8659 26.0298 1.3191 0.0000 -0.0000 0.0000 84.7638 -2.9125 36.9479 -51.5943 53.6186 -27.4526 0.0000 -0.0000 -1.1288 -19.1741 -6.0499 2.0989 7.1250 -0.0000 -0.0000 6.3536 -36.3194 1.3629
2.4900 15.3520 41.9934 -175.2100 -8.9400 -149.8610 0.0000 0.0000 0.0000 0.3346 -16.7370 -73.9506 12.9526 18.7650 68.9783 0.8003 -14.4782 -17.6729 1.0853 6.6210 18.5974 0.0000 0.0000 0.0000 23.2589 -2.8499 -30.2524 -12.9270 -18.7556 68.8986 0.1737 -7.6179 -4.8557 -2.3874 9.6303 -27.7877 5.3570 0.7917 28.7462 0.6222 1.8762 3.8773 -3.0147 0.2868 -11.3673 -4.1835 -3.9497 -13.0489 4.9235 -5.3052 -5.2024 2.0313 -2.7959 0.8208 0.0000 -0.0000 0.0000 -80.7349 2.8529 39.5369 35.6743 -45.2877 -15.2906 -0.0000 0.0000 -0.1234 22.7131 -3.5113 -1.4685 -7.1250 0.0000 -0.0000 -2.9645 26.1723 1.3547 0.0000 -0.0000 0.0000 84.6107 -3.2356 36.4543 -52.6339 54.0041 -28.2916 0.0000 -0.0000 -1.4471 -19.4599 -6.1713 2.1752 7.1250 -0.0000 -0.0000 6.1286 -36.4628 1.2926
2.4418 15.3511 41.6889 -175.7200 -8.8830 -149.5930 0.0000 0.0000 0.0000 -0.6571 -16.6624 -73.0276 13.0959 18.8165 69.4231 0.8996 -15.1509 -18.6779 1.0320 6.4618 18.1302 0.0000 0.0000 0.0000 22.4249 -2.8139 -33.4031 -13.9483 -19.0983 72.0465 0.1231 -7.2378 -6.6073 -2.3636 9.5855 -27.6446 5.0766 0.6897 28.8499 0.5658 1.6519 3.9117 -2.8363 0.1929 -11.4088 -4.1701 -3.8941 -13.0479 4.8589 -5.2327 -5.1821 2.0115 -2.7603 0.8211 0.0000 -0.0000 0.0000 -80.5328 2.5360 39.7249 36.0921 -45.5764 -15.5883 -0.0000 -0.0000 0.1143 22.7464 -3.5046 -1.4681 -7.1250 0.0000 -0.0000 -2.9392 26.1786 1.3427 0.0000 -0.0000 0.0000 84.4696 -3.6149 35.9498 -53.7546 54.4019 -29.2006 0.0000 -0.0000 -1.6149 -19.7080 -6.1701 2.2048 7.1250 -0.0000 -0.0000 5.9207 -36.4755 1.2465
2.3937 15.3447 41.3853 -176.1560 -8.7762 -149.3130 0.0000 0.0000 0.0000 -1.5315 -16.5423 -72.1556 13.2686 18.8770 69.9576 1.0077 -15.7915 -19.6953 0.9537 6.2189 17.4210 0.0000 0.0000 0.0000 21.6386 -2.6730 -36.5389 -14.8743 -19.3581 74.8579 0.0559 -6.8106 -8.1943 -2.3783 9.6132 -27.7330 4.8284 0.6012 28.9299 0.5147 1.4574 3.9272 -2.6804 0.1120 -11.4548 -4.1351 -3.8329 -13.0538 4.7812 -5.1544 -5.1368 1.9836 -2.7212 0.8293 -0.0000 0.0000 0.0000 -80.3269 2.2542 39.8299 36.5176 -45.8659 -15.8928 -0.0000 -0.0000 0.3392 22.8525 -3.5637 -1.5006 -7.1250 0.0000 -0.0000 -2.8584 26.1119 1.3101 -0.0000 0.0000 0.0000 84.3267 -4.0170 35.4358 -54.9823 54.8174 -30.2015 0.0000 -0.0000 -1.8644 -19.8937 -6.2393 2.2522 7.1250 -0.0000 -0.0000 5.7729 -36.5590 1.2033
2.3461 15.3335 41.0825 -176.5290 -8.6295 -149.0380 0.0000 0.0000 0.0000 -2.3138 -16.3897 -71.2965 13.4476 18.9379 70.5102 1.1197 -16.3544 -20.6748 0.8384 5.8409 16.3235 0.0000 0.0000 0.0000 20.8844 -2.4281 -39.6812 -15.7570 -19.5628 77.5068 -0.0260 -6.3549 -9.7131 -2.4047 9.6625 -27.8906 4.6067 0.5211 29.0156 0.4697 1.2846 3.9262 -2.5407 0.0401 -11.5193 -4.0826 -3.7649 -13.0613 4.6867 -5.0679 -5.0657 1.9473 -2.6776 0.8448 -0.0000 0.0000 0.0000 -80.1173 2.0230 39.8622 36.9743 -46.1715 -16.2215 -0.0000 -0.0000 0.5523 23.0230 -3.6275 -1.5401 -7.1250 0.0000 -0.0000 -2.7286 26.0380 1.2552 -0.0000 0.0000 0.0000 84.1779 -4.4434 34.9166 -56.3139 55.2449 -31.2927 0.0000 -0.0000 -2.1653 -20.0195 -6.3143 2.2948 7.1250 -0.0000 -0.0000 5.6757 -36.6453 1.1709
2.2995 15.3176 40.7805 -176.8560 -8.4567 -148.7880 0.0000 0.0000 0.0000 -3.0203 -16.2207 -70.4459 13.6425 19.0020 71.1097 1.2318 -16.8612 -21.6015 0.7147 5.4025 15.0602 0.0000 0.0000 0.0000 20.1572 -2.1013 -42.7942 -16.5582 -19.7136 79.8906 -0.1146 -5.9072 -11.0830 -2.4658 9.7754 -28.2525 4.4057 0.4470 29.1259 0.4302 1.1267 3.9210 -2.4120 -0.0266 -11.5986 -4.0080 -3.6932 -13.0885 4.5685 -4.9780 -4.9621 1.8991 -2.6318 0.8727 -0.0000 -0.0000 0.0000 -79.9007 1.8303 39.8373 37.4571 -46.4891 -16.5707 -0.0000 -0.0000 0.7475 23.2923 -3.7387 -1.6080 -7.1250 0.0000 -0.0000 -2.5241 25.9094 1.1686 -0.0000 -0.0000 0.0000 84.0264 -4.8793 34.3869 -57.7493 55.6797 -32.4752 0.0000 -0.0000 -2.4947 -20.0914 -6.3643 2.3219 7.1250 -0.0000 -0.0000 5.6210 -36.7023 1.1517
2.2544 15.2983 40.4787 -177.1510 -8.2750 -148.5790 0.0000 0.0000 0.0000 -3.6713 -16.0487 -69.5844 13.8541 19.0692 71.7585 1.3438 -17.2946 -22.4733 0.5785 4.8706 13.5399 0.0000 0.0000 0.0000 19.4501 -1.7206 -45.8777 -17.2829 -19.8221 82.0331 -0.2122 -5.4520 -12.3982 -2.5434 9.9163 -28.7062 4.2223 0.3749 29.2838 0.3980 0.9768 3.9173 -2.2878 -0.0914 -11.6985 -3.9044 -3.6163 -13.1356 4.4153 -4.8836 -4.8295 1.8341 -2.5839 0.9113 -0.0000 0.0000 0.0000 -79.6745 1.6788 39.7715 37.9769 -46.8245 -16.9487 -0.0000 -0.0000 0.9357 23.6704 -3.9052 -1.7100 -7.1250 0.0000 -0.0000 -2.2380 25.7164 1.0460 -0.0000 0.0000 0.0000 83.8704 -5.3302 33.8446 -59.3135 56.1242 -33.7705 0.0000 -0.0000 -2.8360 -20.1314 -6.3624 2.3262 7.1250 -0.0000 -0.0000 5.5871 -36.7027 1.1446
2.2114 15.2755 40.1772 -177.4150 -8.1000 -148.4140 0.0000 0.0000 0.0000 -4.2639 -15.8763 -68.7244 14.0852 19.1397 72.4644 1.4481 -17.6669 -23.2514 0.4443 4.2769 11.8569 0.0000 0.0000 0.0000 18.7680 -1.2876 -48.9267 -17.9294 -19.8969 83.9359 -0.3213 -4.9970 -13.7212 -2.6606 10.1242 -29.3799 4.0654 0.3020 29.4836 0.3746 0.8315 3.9287 -2.1697 -0.1567 -11.8005 -3.7741 -3.5342 -13.2166 4.2308 -4.7853 -4.6747 1.7540 -2.5346 0.9612 -0.0000 -0.0000 0.0000 -79.4322 1.5465 39.6761 38.5339 -47.1769 -17.3561 -0.0000 -0.0000 1.1006 24.1028 -4.0936 -1.8292 -7.1250 0.0000 -0.0000 -1.9122 25.4963 0.9033 -0.0000 -0.0000 0.0000 83.7146 -5.7734 33.2902 -61.0190 56.5754 -35.1903 0.0000 -0.0000 -3.1793 -20.1519 -6.3161 2.3119 7.1250 -0.0000 -0.0000 5.5648 -36.6548 1.1465
2.1706 15.2496 39.8751 -177.6520 -7.9580 -148.3100 0.0000 0.0000 0.0000 -4.7991 -15.7119 -67.8501 14.3362 19.2128 73.2286 1.5326 -18.0422 -23.8900 0.3387 3.7396 10.3453 0.0000 0.0000 0.0000 18.1167 -0.8263 -51.9156 -18.4943 -19.9456 85.5937 -0.4380 -4.5604 -15.0125 -2.7850 10.3385 -30.0801 3.9452 0.2221 29.7449 0.3661 0.6864 3.9568 -2.0550 -0.2251 -11.9128 -3.6135 -3.4462 -13.3158 4.0113 -4.6830 -4.5070 1.6574 -2.4843 1.0164 0.0000 0.0000 0.0000 -79.1698 1.4367 39.5702 39.1340 -47.5484 -17.7976 -0.0000 -0.0000 1.2313 24.5756 -4.3120 -1.9693 -7.1250 0.0000 -0.0000 -1.5579 25.2400 0.7451 0.0000 0.0000 0.0000 83.5589 -6.2149 32.7201 -62.8292 57.0179 -36.7050 0.0000 -0.0000 -3.4387 -20.1814 -6.1870 2.2685 7.1250 -0.0000 -0.0000 5.5257 -36.5200 1.1567
2.1326 15.2212 39.5719 -177.8520 -7.8682 -148.2670 0.0000 0.0000 0.0000 -5.2568 -15.5580 -66.9581 14.6052 19.2874 74.0447 1.5961 -18.4136 -24.3884 0.2471 3.1987 8.8324 0.0000 0.0000 0.0000 17.5127 -0.3433 -54.8339 -18.9731 -19.9747 86.9964 -0.5604 -4.1592 -16.2703 -2.9309 10.5823 -30.8838 3.8785 0.1283 30.0577 0.3783 0.5375 4.0086 -1.9448 -0.2993 -12.0219 -3.4354 -3.3508 -13.4218 3.7660 -4.5736 -4.3441 1.5501 -2.4316 1.0702 -0.0000 0.0000 0.0000 -78.8849 1.3348 39.4544 39.7781 -47.9379 -18.2743 -0.0000 -0.0000 1.3247 25.0525 -4.5467 -2.1220 -7.1250 0.0000 -0.0000 -1.2028 24.9631 0.5829 -0.0000 0.0000 0.0000 83.4030 -6.6416 32.1401 -64.7828 57.4553 -38.3479 0.0000 -0.0000 -3.6902 -20.2068 -6.0119 2.2076 7.1250 -0.0000 -0.0000 5.4854 -36.3361 1.1729
2.0973 15.1907 39.2670 -178.0060 -7.8444 -148.2860 0.0000 0.0000 0.0000 -5.6208 -15.4149 -66.0360 14.8864 19.3612 74.8942 1.6275 -18.8480 -24.7111 0.1816 2.7446 7.5684 0.0000 0.0000 0.0000 16.9648 0.1602 -57.6653 -19.3621 -19.9902 88.1347 -0.6829 -3.8141 -17.4566 -3.0788 10.8216 -31.6804 3.8930 0.0080 30.5491 0.3520 0.3890 3.6722 -1.7947 -0.3704 -11.8391 -3.2437 -3.2485 -13.5214 3.4989 -4.4582 -4.2022 1.4343 -2.3776 1.1153 0.0000 -0.0000 0.0000 -78.5802 1.2297 39.3320 40.4659 -48.3435 -18.7866 -0.0000 -0.0000 1.3780 25.4996 -4.7726 -2.2726 -7.1250 0.0000 -0.0000 -0.8721 24.6949 0.4280 0.0000 -0.0000 0.0000 83.2433 -7.0507 31.5561 -66.8761 57.8799 -40.1167 0.0000 -0.0000 -3.9231 -20.2238 -5.8377 2.1459 7.1250 -0.0000 -0.0000 5.4528 -36.1526 1.1904
